<svg xmlns="http://www.w3.org/2000/svg" width="89.908" height="16" viewBox="0 0 89.908 16">
  <g id="Logo_text" transform="translate(-392.198 -393.581)">
    <path id="パス_7" data-name="パス 7" d="M1173.661,1494.581c-3.822,0-6.39-2.631-6.39-6.547v-9.453h3.96v9.453a2.34,2.34,0,0,0,2.535,2.666c2.107,0,3.268-1.384,3.268-3.9v-8.222h3.934v15.712h-3.934v-.544A6.742,6.742,0,0,1,1173.661,1494.581Z" transform="translate(-756.462 -1085)" />
    <path id="パス_8" data-name="パス 8" d="M1374.516,1494.581v-15.816h3.96v.53a6.449,6.449,0,0,1,3.078-.714h1.321v3.907h-1.321c-.926,0-3.078.336-3.078,3.447v8.645Z" transform="translate(-947.299 -1085)" />
    <path id="パス_9" data-name="パス 9" d="M1509.437,1494.581a8.054,8.054,0,0,1-5.693-2.3,8.071,8.071,0,0,1,0-11.4,8.171,8.171,0,0,1,11.365,0,8,8,0,0,1-5.672,13.7Zm0-12.187a4.187,4.187,0,1,0,4.136,4.187A4.13,4.13,0,0,0,1509.437,1482.394Z" transform="translate(-1064.124 -1085)" />
    <path id="パス_10" data-name="パス 10" d="M1737.35,1494.581v-15.816h3.96v.53a6.448,6.448,0,0,1,3.078-.714h1.322v3.907h-1.322c-.926,0-3.078.336-3.078,3.447v8.645Z" transform="translate(-1281.406 -1085)"/>
    <rect id="長方形_9" data-name="長方形 9" width="3.928" height="7.995" transform="translate(404.28 401.587)" />
    <path id="パス_11" data-name="パス 11" d="M948.209,1486.586a8.005,8.005,0,0,0-16.008-.173c0,.015,0,.03,0,.045s0,.033,0,.05c0-.013,0-.025,0-.038,0,.039,0,.077,0,.116a8.005,8.005,0,0,0,16.008.173c0-.015,0-.03,0-.045s0-.033,0-.05c0,.013,0,.025,0,.038C948.208,1486.664,948.209,1486.625,948.209,1486.586Zm-8.005,4.077a4.077,4.077,0,1,1,4.077-4.077A4.077,4.077,0,0,1,940.2,1490.663Z" transform="translate(-540 -1085)" />
    <rect id="長方形_10" data-name="長方形 10" width="3.928" height="7.995" transform="translate(478.178 401.587)" />
    <path id="パス_12" data-name="パス 12" d="M1881.585,1486.586a8.005,8.005,0,0,0-16.008-.173c0,.015,0,.03,0,.045s0,.033,0,.05c0-.013,0-.025,0-.038,0,.039,0,.077,0,.116a8.005,8.005,0,0,0,16.008.173c0-.015,0-.03,0-.045s0-.033,0-.05c0,.013,0,.025,0,.038C1881.584,1486.664,1881.585,1486.625,1881.585,1486.586Zm-8.005,4.077a4.077,4.077,0,1,1,4.077-4.077A4.077,4.077,0,0,1,1873.579,1490.663Z" transform="translate(-1399.478 -1085)" />
  </g>
</svg>
